<?xml version="1.0" encoding="UTF-8" standalone="no"?>
<!-- Created with Inkscape (http://www.inkscape.org/) -->

<svg
   xmlns:dc="http://purl.org/dc/elements/1.1/"
   xmlns:cc="http://creativecommons.org/ns#"
   xmlns:rdf="http://www.w3.org/1999/02/22-rdf-syntax-ns#"
   xmlns:svg="http://www.w3.org/2000/svg"
   xmlns="http://www.w3.org/2000/svg"
   xmlns:sodipodi="http://sodipodi.sourceforge.net/DTD/sodipodi-0.dtd"
   xmlns:inkscape="http://www.inkscape.org/namespaces/inkscape"
   width="295"
   height="60"
   viewBox="0 0 78.052084 15.875001"
   version="1.1"
   id="svg8"
   inkscape:version="0.92.2 5c3e80d, 2017-08-06"
   sodipodi:docname="mitre_inspec_horz.svg">
  <defs
     id="defs2">
    <style
       id="style263"
       type="text/css"><![CDATA[
    .fil0 {fill:none}
    .fil1 {fill:#005596}
   ]]></style>
    <style
       id="style386"
       type="text/css"><![CDATA[
    .fil0 {fill:none}
    .fil1 {fill:#005596}
   ]]></style>
  </defs>
  <sodipodi:namedview
     id="base"
     pagecolor="#ffffff"
     bordercolor="#666666"
     borderopacity="1.0"
     inkscape:pageopacity="0.0"
     inkscape:pageshadow="2"
     inkscape:zoom="4.2501116"
     inkscape:cx="119.75818"
     inkscape:cy="28.118364"
     inkscape:document-units="mm"
     inkscape:current-layer="layer1"
     showgrid="false"
     inkscape:pagecheckerboard="false"
     showborder="true"
     borderlayer="true"
     inkscape:window-width="1440"
     inkscape:window-height="810"
     inkscape:window-x="0"
     inkscape:window-y="1"
     inkscape:window-maximized="1"
     inkscape:measure-start="356.605,604.609"
     inkscape:measure-end="307.796,563.194"
     inkscape:snap-midpoints="true"
     units="px" />
  <metadata
     id="metadata5">
    <rdf:RDF>
      <cc:Work
         rdf:about="">
        <dc:format>image/svg+xml</dc:format>
        <dc:type
           rdf:resource="http://purl.org/dc/dcmitype/StillImage" />
        <dc:title></dc:title>
      </cc:Work>
    </rdf:RDF>
  </metadata>
  <g
     inkscape:label="Layer 1"
     inkscape:groupmode="layer"
     id="layer1"
     transform="translate(0,-281.12499)">
    <g
       id="g202"
       transform="matrix(0.26458333,0,0,0.26458333,32.799176,284.07013)">
      <g
         id="g153">
        <g
           id="g125">
          <g
             id="g123" />
        </g>
        <g
           id="g151">
          <g
             id="g133">
            <g
               id="g131">
              <circle
                 id="ellipse127"
                 cy="20.799999"
                 cx="20.799999"
                 style="fill:#4297b6"
                 transform="matrix(0.00506812,-1,1,0.00506812,-0.1059,41.4307)"
                 r="7" />
              <path
                 id="path129"
                 d="M 41.5,20.9 C 41.4,32.4 32.1,41.6 20.7,41.5 16,41.5 11.6,39.9 8.1,37.2 l 6,-5.9 c 1.9,1.2 4.2,2 6.6,2 6.9,0 12.5,-5.5 12.5,-12.4 C 33.2,14 27.7,8.4 20.8,8.4 14,8.3 8.4,13.8 8.3,20.7 c 0,2.4 0.7,4.7 1.9,6.7 l -6,5.9 C 1.6,29.8 0,25.4 0,20.7 0.1,9.2 9.4,0 20.9,0 32.3,0.1 41.6,9.4 41.5,20.9 Z"
                 style="fill:#4297b6"
                 inkscape:connector-curvature="0" />
            </g>
          </g>
          <g
             id="g149">
            <path
               id="path135"
               d="M 49.3,32.2 V 8.5 H 54 v 23.7 z"
               style="fill:#616569"
               inkscape:connector-curvature="0" />
            <path
               id="path137"
               d="M 78.5,32.2 65.2,18.4 V 32.3 H 60.5 V 8.5 H 62 L 75.1,21.8 V 8.5 h 4.7 v 23.8 h -1.3 z"
               style="fill:#616569"
               inkscape:connector-curvature="0" />
            <path
               id="path139"
               d="m 93,22.2 c -0.8,-0.2 -2.2,-0.6 -3.6,-1.5 -1.9,-1.3 -2.9,-3.1 -3.1,-5.4 -0.1,-1.9 0.5,-3.6 1.7,-4.8 1.8,-1.8 4.3,-2.3 5.5,-2.3 3.5,0 5.4,1.3 7.1,2.4 l 0.8,0.5 -2.5,4 -0.8,-0.5 c -1.5,-1 -2.5,-1.6 -4.6,-1.6 -0.3,0 -1.5,0.2 -2.1,0.9 -0.2,0.2 -0.4,0.6 -0.4,1.4 0,1.2 0.9,1.9 3.1,2.4 0.3,0.1 0.5,0.1 0.7,0.2 2.3,0.8 4,1.8 5.3,3.2 1.2,1.4 1.9,2.9 1.9,4.6 0,1.7 -0.7,3.4 -1.9,4.7 -1.4,1.6 -3.3,2.4 -5.5,2.4 -1.1,0 -2.5,-0.1 -4.2,-0.6 -2.1,-0.7 -4,-1.9 -5.7,-3.6 l 3.5,-3.3 c 2.5,2.7 5.3,2.7 6.4,2.7 2,0 2.6,-1.8 2.6,-2.4 0,-1.3 -1.5,-2.5 -3.9,-3.3 h -0.1 z"
               style="fill:#616569"
               inkscape:connector-curvature="0" />
            <path
               id="path141"
               d="m 115.6,8.5 c 3.9,0 7.1,3.2 7.1,7.2 0,3.9 -3.2,7.1 -7.1,7.1 h -2.9 v 9.5 H 108 V 8.5 Z m 0,9.5 c 1.3,0 2.4,-1.1 2.4,-2.4 0,-1.3 -1.1,-2.4 -2.4,-2.4 h -2.9 V 18 Z"
               style="fill:#616569"
               inkscape:connector-curvature="0" />
            <g
               id="g145">
              <path
                 id="path143"
                 d="M 143.6,13.2 H 127.8 V 8.5 h 15.8 z m -15.9,4.4 h 13.1 v 4.7 h -13.1 z m 0,9.9 h 15.7 v 4.7 h -15.7 z"
                 style="fill:#616569"
                 inkscape:connector-curvature="0" />
            </g>
            <path
               id="path147"
               d="m 165.9,14.2 c -4.6,-3 -11.6,-0.2 -11.6,6.2 0,6.7 7.4,9.4 11.8,6 l 3.1,3.5 c -2.1,1.8 -4.9,2.8 -7.9,2.8 -6.8,0 -12.3,-5.5 -12.3,-12.3 0,-6.8 5.5,-12.3 12.3,-12.3 2.8,0 5.5,1 7.6,2.6 z"
               style="fill:#616569"
               inkscape:connector-curvature="0" />
          </g>
        </g>
      </g>
      <g
         id="g155" />
      <g
         id="g157" />
      <g
         id="g159" />
      <g
         id="g161" />
      <g
         id="g163" />
      <g
         id="g165" />
    </g>
    <g
       style="clip-rule:evenodd;fill-rule:evenodd;image-rendering:optimizeQuality;shape-rendering:geometricPrecision;text-rendering:geometricPrecision"
       id="g418"
       transform="matrix(0.2370232,0,0,0.18210561,-4.2044424,283.18666)">
      <g
         id="Capa_x0020_1">
        <metadata
           id="CorelCorpID_0Corel-Layer" />
        <g
           id="_46786296">
          <rect
             height="70.2006"
             width="170.25"
             y="-0.100392"
             x="-0.125201"
             class="fil0"
             id="_47421136"
             style="fill:none" />
          <g
             id="g397">
            <polygon
               points="44.9378,51.3891 39.8071,51.3879 31.3503,29.3058 27.0534,51.8048 20.1214,51.9442 26.4983,15.9722 33.7078,15.9722 42.1634,38.4724 51.0359,16.1116 57.8285,16.1116 64.3447,51.8048 57.2745,51.8048 53.3922,29.444 "
               class="fil1"
               id="_47588056"
               style="fill:#005596" />
            <rect
               height="35.694401"
               width="6.3768301"
               y="15.9722"
               x="66.564003"
               class="fil1"
               id="_47489872"
               style="fill:#005596" />
            <polygon
               points="90.1308,51.8036 83.7527,51.8048 83.7527,21.9451 75.9893,21.9451 75.9893,15.9722 97.7537,15.9722 97.7537,21.8045 90.1308,21.8045 "
               class="fil1"
               id="_46948704"
               style="fill:#005596" />
            <polygon
               points="147.245,15.8175 147.245,21.9451 133.243,21.9451 133.243,31.1117 147.105,31.1117 147.105,36.8035 133.243,36.8059 133.243,46.2489 147.105,46.2489 147.105,51.8048 126.729,51.8048 126.729,15.8352 "
               class="fil1"
               id="_47616504"
               style="fill:#005596" />
            <path
               d="M 99.8336,51.9442 99.97179,15.834 h 14.4864 c 6.23746,0 10.3973,2.67522 10.3277,9.86111 0.55394,10.4151 -8.53354,11.6529 -9.89655,10.9903 l 10.6962,14.8265 -7.40204,-0.0024 -10.0324,-14.1486 -0.13819,-6.80557 h 8.52409 c 2.73782,0.0024 3.09924,-8.33275 -0.27638,-8.34102 l -10.0501,-0.269294 v 29.7215 l -6.376831,0.277562 z"
               class="fil1"
               id="_47609272"
               inkscape:connector-curvature="0"
               style="fill:#005596" />
          </g>
        </g>
      </g>
    </g>
  </g>
</svg>
